<svg viewBox="0 0 160 160" width="160" height="160" xmlns="http://www.w3.org/2000/svg">
<defs><clipPath id="hexagon-clip-39">
<path d="M251.6 17.34l63.53 110.03c5.72 9.9 5.72 22.1 0 32L251.6 269.4c-5.7 9.9-16.27 16-27.7 16H96.83c-11.43 0-22-6.1-27.7-16L5.6 159.37c-5.7-9.9-5.7-22.1 0-32L69.14 17.34c5.72-9.9 16.28-16 27.7-16H223.9c11.43 0 22 6.1 27.7 16z" transform="scale(0.5) translate(0, 16)"/>
</clipPath></defs>
<g clip-path="url(#hexagon-clip-39)">
<g color="#FA7268" fill="#FC8702">
<rect fill="#D94432" x="0" y="0" width="160" height="160"/>
<circle cx="80" cy="80" r="40" fill="#FA7268"/>
<g opacity=".1" fill="#010101"><path d="M119.21,80a39.46,39.46,0,0,1-67.13,28.13c10.36,2.33,36,3,49.82-14.28,10.39-12.47,8.31-33.23,4.16-43.26A39.35,39.35,0,0,1,119.21,80Z"/></g>
<path xmlns="http://www.w3.org/2000/svg" d="M33.6 59.8L68 21s2.1-3 6.4 0c4.3 3 44.5 27.4 44.5 27.4 1.5 1 1.1 2 1.3 2.8-.3 1.3-7.5-8.2-46.8-3.8C34 52.9 33.1 61.8 34.1 62.8s-.5-1-.5-3z" fill="#93505c"/><path xmlns="http://www.w3.org/2000/svg" d="M33.6 59.8L68 21s2.1-3 6.4 0c-3.2-1-23.3 27.5-27 31.8-13.7 4.5-14 9.2-13.2 9.9 1 1.1-.6-1-.6-3z" opacity=".14"/><path xmlns="http://www.w3.org/2000/svg" d="M42.9 64.6c-.3-10 64.4-16.3 67.5-8.5 2.6.8 15.9-4.8 6.4-7.2s-25.1-5.9-57.6.9-25.9 13.7-25.9 13.7 7.9 2.4 9.6 1.1z"/>
<path xmlns="http://www.w3.org/2000/svg" d="M125.8 71.4s19.2 1.4 19.6 2.8c.1.4-18.2 9.7-17 9.1 0 0 2.4-5.8 2.1-7.1s-4.7-4.8-4.7-4.8z" fill="#5e5e5e"/><path xmlns="http://www.w3.org/2000/svg" d="M125.2 71.3s19.2 1.4 19.6 2.8c-5 1-14.6 2.4-14.6 2.4l-5-5.2z" fill="#e2e2e2"/><g xmlns="http://www.w3.org/2000/svg" fill="#603813"><path d="M130.6 79.2l-11.6 1v-4.7l10.8-.8s5 .4 5.2 1.2-2.7 3-4.4 3.3zM54.6 83.7l-36.5 2s-2.8.1-3-1.6c-.1-1.5.8-2.4 2.6-2.9L54 77.5a3.2 3.2 0 013.4 2.8 3 3 0 01-2.8 3.4z"/></g><path xmlns="http://www.w3.org/2000/svg" d="M54.6 83.7l-36.5 2c-1.8 0-2.8-.5-3-1.6 17-1.2 44.2-2.4 42.3-3.8 0 .1.5 2.7-2.8 3.4z" opacity=".2"/><path xmlns="http://www.w3.org/2000/svg" d="M38.8 80.4l-5.4-5.8-17.1.1 6.1 6.6zM39.4 83.2l-6.6 7.9-17.1 1.2 6.6-7.9z"/><g xmlns="http://www.w3.org/2000/svg" fill="#010101" opacity=".2"><path d="M23.8 76.7c.2-.2.5-.2.7 0l2.7 2.9c.2.2.2.5 0 .7-.2.2-.5.2-.7 0l-2.7-2.9a.5.5 0 010-.7zM20.8 76.7c.2-.2.5-.2.7 0l2.7 2.9c.2.2.2.5 0 .7-.2.2-.5.2-.7 0l-2.7-2.9a.5.5 0 010-.7zM26.8 76.7c.2-.2.5-.2.7 0l2.7 2.9c.2.2.2.5 0 .7-.2.2-.5.2-.7 0l-2.7-2.9a.5.5 0 010-.7zM29.8 76.7c.2-.2.5-.2.7 0l2.7 2.9c.2.2.2.5 0 .7-.2.2-.5.2-.7 0l-2.7-2.9a.5.5 0 010-.7zM32.8 76.7c.2-.2.5-.2.7 0l2.7 2.9c.2.2.2.5 0 .7-.2.2-.5.2-.7 0l-2.7-2.9a.5.5 0 010-.7zM26.2 85.7c.2.2.2.5 0 .7l-2.7 2.9c-.2.2-.5.2-.7 0a.5.5 0 010-.7l2.7-2.9c.2-.2.5-.2.7 0zM23.2 85.7c.2.2.2.5 0 .7l-2.7 2.9c-.2.2-.5.2-.7 0a.5.5 0 010-.7l2.7-2.9c.2-.2.5-.2.7 0zM29.2 85.7c.2.2.2.5 0 .7l-2.7 2.9c-.2.2-.5.2-.7 0a.5.5 0 010-.7l2.7-2.9c.2-.2.5-.2.7 0zM32.2 85.7c.2.2.2.5 0 .7l-2.7 2.9c-.2.2-.5.2-.7 0a.5.5 0 010-.7l2.7-2.9c.2-.2.5-.2.7 0zM35.2 85.7c.2.2.2.5 0 .7l-2.7 2.9c-.2.2-.5.2-.7 0a.5.5 0 010-.7l2.7-2.9c.2-.2.5-.2.7 0z"/></g>
<g xmlns="http://www.w3.org/2000/svg" opacity=".3"><ellipse cx="100.5" cy="86.5" rx="14.5" ry="11.7" fill="#fcfcfc"/><path d="M100.5 98.2c-8 0-14.5-5.2-14.5-11.7s6.5-11.7 14.5-11.7S115 80 115 86.5c0-7.3-7.4-13.3-16.5-13.3S82 79.2 82 86.5s7.4 13.3 16.5 13.3 16.5-6 16.5-13.3c0 6.5-6.5 11.7-14.5 11.7z"/></g><g xmlns="http://www.w3.org/2000/svg" fill="#211309"><ellipse cx="96" cy="86.5" rx="3" ry="5.5"/><ellipse cx="107" cy="86.5" rx="3" ry="5.5"/></g><g xmlns="http://www.w3.org/2000/svg" fill="#42210b"><path d="M99 86.5c0 3-1.3 5.5-3 5.5-.5 0-1.1-.2-1.4-.6C98 91 98 82 94.3 82c.4-.6 1-.9 1.7-1 1.7 0 3 2.5 3 5.5zM110 86.5c0 3-1.3 5.5-3 5.5-.5 0-1.1-.2-1.4-.6 3.4-.4 3.4-9.4-.3-9.4.4-.6 1-.9 1.7-1 1.7 0 3 2.5 3 5.5z"/><ellipse transform="rotate(-11.5 109.8 69)" cx="109.8" cy="69" rx="3.6" ry="5.1"/><ellipse transform="rotate(-78.5 86.7 67.7)" cx="86.7" cy="67.7" rx="5.7" ry="4"/></g>
<g xmlns="http://www.w3.org/2000/svg" fill="#ededed"><path d="M61 115.2l3.6 5.1s6.2 4 16.8 3.6c13.1-.7 17.5-3.6 17.5-3.6l2.9-7.3s-16 10.9-40.8 2.2z"/><path d="M67.9 131a6 6 0 002 1.2c6.1 2.6 21 2.5 24.2-1.2l2.2-9.6a60 60 0 01-29.9 0l1.5 9.6z"/><path d="M70.3 133.7c3.1 3.1 7.3 4.8 11.7 4.8 7.3 0 10.2-4.8 10.2-4.8v-1.1s-10.9 3.8-21.9-.5v1.6z"/></g><path xmlns="http://www.w3.org/2000/svg" d="M81.4 123.9l1.6-.1a37.6 37.6 0 0015.9-3.5l2.9-7.3s-7.1 4.9-19.2 5.5c2.4 1.1-1.2 5.4-1.2 5.4z" opacity=".05"/><path xmlns="http://www.w3.org/2000/svg" d="M70.3 133.7c3.1 3.1 7.3 4.8 11.7 4.8 7.3 0 10.2-4.8 10.2-4.8v-1.1s-10.9 3.8-21.9-.5v1.6z" opacity=".3"/><path xmlns="http://www.w3.org/2000/svg" d="M78.1 123.5c.3.3-6.4 3.9-10.9 3.7l.3 1s9.7-1 12.7-5l-2.1.3zm16.8 4.8c1.2.7-10.3 6.7-16 5.9l4-.1s9-.4 12-4.5v-1.3zm-.4-6.4s-13.4 10.3-25.6 9.8l1.6.6s10.9 1.6 25.8-10.4h-1.8z"/><g xmlns="http://www.w3.org/2000/svg" opacity=".15"><path d="M81 134c5.6.1 11.3-.9 13.1-3l2.2-9.6a86 86 0 01-14.3 1.8c.9 1.5.1 5.8-1 10.8z"/><path d="M82.1 123.2c10.2 0 13.7-1.5 13.7-1.5l-.6 1.5s-16.8 3.6-28.4-.7v-1.1s5.1 1.8 15.3 1.8z"/></g>
</g>
</g></svg>